<svg id="Layer_1" data-name="Layer 1" xmlns="http://www.w3.org/2000/svg" viewBox="0 0 20 20"><defs><style>.cls-1{fill:#707070;}</style></defs><title>create-scenario</title><path class="cls-1" d="M9.39,10.44l1-3,2,2Zm3.7-1.38L10.76,6.74,17,.54a1.85,1.85,0,0,1,2.61,0h0a1.45,1.45,0,0,1,0,2Z"/><path class="cls-1" d="M16.85,11.08v6a2.8,2.8,0,0,1-2.78,2.78H2.78A2.78,2.78,0,0,1,0,17.05V5.76A2.77,2.77,0,0,1,2.77,3h6a1.08,1.08,0,0,1,0,2.15h-6a.62.62,0,0,0-.62.62V17.05a.61.61,0,0,0,.62.61H14.07a.61.61,0,0,0,.61-.62v-6a1.11,1.11,0,0,1,.32-.76,1.09,1.09,0,0,1,.76-.32h0A1.1,1.1,0,0,1,16.85,11.08Z"/></svg>