<svg id="Layer_1" data-name="Layer 1" xmlns="http://www.w3.org/2000/svg" viewBox="0 0 20 20"><defs><style>.cls-1{fill:#707070;}</style></defs><title>dashboards</title><path class="cls-1" d="M17.12,10.28H9.72V2.88A.77.77,0,0,0,9,2.1a9,9,0,1,0,9,9A.78.78,0,0,0,17.12,10.28ZM8.18,3.69v7.36a.76.76,0,0,0,.77.77h7.36A7.4,7.4,0,1,1,8.18,3.69Z"/><path class="cls-1" d="M17.76,3a9,9,0,0,0-6.71-3,.77.77,0,0,0-.77.78V9a.76.76,0,0,0,.77.77h8.17A.76.76,0,0,0,20,9v0A9,9,0,0,0,17.76,3Zm.64,5.15H11.82V1.6A7.39,7.39,0,0,1,18.4,8.18Z"/></svg>